<svg xmlns="http://www.w3.org/2000/svg" xmlns:xlink="http://www.w3.org/1999/xlink" width="1200" zoomAndPan="magnify" viewBox="0 0 900 749.999995" height="1000" preserveAspectRatio="xMidYMid meet" version="1.0"><defs><g/><clipPath id="0902860c5d"><path d="M 243.109375 79.46875 L 656.890625 79.46875 L 656.890625 493.253906 L 243.109375 493.253906 Z M 243.109375 79.46875 " clip-rule="nonzero"/></clipPath><clipPath id="faeae35bc4"><path d="M 450 79.46875 C 335.738281 79.46875 243.109375 172.097656 243.109375 286.363281 C 243.109375 400.625 335.738281 493.253906 450 493.253906 C 564.261719 493.253906 656.890625 400.625 656.890625 286.363281 C 656.890625 172.097656 564.261719 79.46875 450 79.46875 Z M 450 79.46875 " clip-rule="nonzero"/></clipPath><clipPath id="48693eb67e"><path d="M 270 172.878906 L 617 172.878906 L 617 451.878906 L 270 451.878906 Z M 270 172.878906 " clip-rule="nonzero"/></clipPath></defs><rect x="-90" width="1080" fill="#ffffff" y="-74.999999" height="899.999994" fill-opacity="1"/><rect x="-90" width="1080" fill="#ffffff" y="-74.999999" height="899.999994" fill-opacity="1"/><g clip-path="url(#0902860c5d)"><g clip-path="url(#faeae35bc4)"><path fill="#eb4c23" d="M 243.109375 79.46875 L 656.890625 79.46875 L 656.890625 493.253906 L 243.109375 493.253906 Z M 243.109375 79.46875 " fill-opacity="1" fill-rule="nonzero"/></g></g><g clip-path="url(#48693eb67e)"><path fill="#ffffff" d="M 419.261719 428.503906 C 412.09375 428.503906 406.261719 422.671875 406.261719 415.503906 C 406.261719 408.335938 412.09375 402.507812 419.261719 402.507812 C 426.429688 402.507812 432.257812 408.335938 432.257812 415.503906 C 432.257812 422.671875 426.429688 428.503906 419.261719 428.503906 Z M 518.148438 428.503906 C 510.980469 428.503906 505.148438 422.671875 505.148438 415.503906 C 505.148438 408.335938 510.980469 402.507812 518.148438 402.507812 C 525.316406 402.507812 531.144531 408.335938 531.144531 415.503906 C 531.144531 422.671875 525.316406 428.503906 518.148438 428.503906 Z M 605.101562 216.417969 L 375.800781 216.417969 L 362.175781 180.40625 C 360.464844 175.894531 356.144531 172.910156 351.320312 172.910156 L 310.722656 172.910156 C 304.316406 172.910156 299.125 178.105469 299.125 184.515625 C 299.125 190.921875 304.316406 196.117188 310.722656 196.117188 L 343.304688 196.117188 L 350.988281 216.417969 L 348.222656 216.417969 C 341.816406 216.417969 336.621094 221.617188 336.621094 228.023438 C 336.621094 234.429688 341.816406 239.625 348.222656 239.625 L 359.769531 239.625 L 361.8125 245.011719 L 281.953125 245.011719 C 275.546875 245.011719 270.351562 250.207031 270.351562 256.617188 C 270.351562 263.023438 275.546875 268.214844 281.953125 268.214844 L 368.601562 268.214844 C 369.257812 268.214844 369.898438 268.148438 370.527344 268.042969 L 374.734375 279.15625 L 326.230469 279.15625 C 319.824219 279.15625 314.628906 284.351562 314.628906 290.761719 C 314.628906 297.167969 319.824219 302.363281 326.230469 302.363281 L 381.515625 302.363281 C 382.175781 302.363281 382.816406 302.292969 383.445312 302.1875 L 387.652344 313.304688 L 287.257812 313.304688 C 280.847656 313.304688 275.65625 318.496094 275.65625 324.90625 C 275.65625 331.316406 280.847656 336.507812 287.257812 336.507812 L 394.441406 336.507812 C 395.097656 336.507812 395.738281 336.441406 396.367188 336.335938 L 396.953125 337.886719 L 393.453125 347.449219 L 348.273438 347.449219 C 341.867188 347.449219 336.671875 352.644531 336.671875 359.050781 C 336.671875 365.460938 341.867188 370.65625 348.273438 370.65625 L 384.964844 370.65625 L 382.898438 376.300781 C 381.597656 379.859375 382.113281 383.828125 384.285156 386.933594 C 386.109375 389.539062 388.902344 391.242188 391.992188 391.730469 C 386.433594 398.097656 383.058594 406.410156 383.058594 415.503906 C 383.058594 435.46875 399.296875 451.710938 419.261719 451.710938 C 439.222656 451.710938 455.464844 435.46875 455.464844 415.503906 C 455.464844 406.484375 452.140625 398.234375 446.667969 391.890625 L 490.742188 391.890625 C 485.265625 398.234375 481.945312 406.484375 481.945312 415.503906 C 481.945312 435.46875 498.1875 451.710938 518.148438 451.710938 C 538.109375 451.710938 554.351562 435.46875 554.351562 415.503906 C 554.351562 406.484375 551.03125 398.234375 545.554688 391.890625 L 554.351562 391.890625 C 560.761719 391.890625 565.953125 386.695312 565.953125 380.285156 C 565.953125 373.878906 560.761719 368.683594 554.351562 368.683594 L 410.394531 368.683594 L 417.445312 349.417969 L 560.570312 349.417969 C 565.296875 349.417969 569.546875 346.554688 571.324219 342.175781 L 615.851562 232.382812 C 617.304688 228.804688 616.882812 224.742188 614.726562 221.539062 C 612.566406 218.339844 608.960938 216.417969 605.101562 216.417969 " fill-opacity="1" fill-rule="nonzero"/></g><path fill="#ffffff" d="M 262.613281 256.613281 C 262.613281 250.207031 257.417969 245.011719 251.011719 245.011719 L 201.914062 245.011719 C 195.507812 245.011719 190.3125 250.207031 190.3125 256.613281 C 190.3125 263.019531 195.507812 268.214844 201.914062 268.214844 L 251.011719 268.214844 C 257.417969 268.214844 262.613281 263.019531 262.613281 256.613281 " fill-opacity="1" fill-rule="nonzero"/><path fill="#ffffff" d="M 306 290.761719 C 306 284.351562 300.804688 279.15625 294.398438 279.15625 L 243.019531 279.15625 C 236.609375 279.15625 231.417969 284.351562 231.417969 290.761719 C 231.417969 297.167969 236.609375 302.363281 243.019531 302.363281 L 294.398438 302.363281 C 300.804688 302.363281 306 297.167969 306 290.761719 " fill-opacity="1" fill-rule="nonzero"/><g fill="#000000" fill-opacity="1"><g transform="translate(132.51201, 634.482261)"><g><path d="M 40.375 -93.15625 C 45.320312 -93.15625 50.160156 -92.4375 54.890625 -91 C 59.628906 -89.5625 63.144531 -88.140625 65.4375 -86.734375 L 68.765625 -84.515625 L 60.328125 -67.875 C 59.660156 -68.320312 58.734375 -68.894531 57.546875 -69.59375 C 56.367188 -70.289062 54.15625 -71.234375 50.90625 -72.421875 C 47.65625 -73.609375 44.625 -74.203125 41.8125 -74.203125 C 38.332031 -74.203125 35.648438 -73.460938 33.765625 -71.984375 C 31.878906 -70.503906 30.9375 -68.503906 30.9375 -65.984375 C 30.9375 -64.734375 31.378906 -63.570312 32.265625 -62.5 C 33.160156 -61.425781 34.675781 -60.28125 36.8125 -59.0625 C 38.957031 -57.84375 40.84375 -56.863281 42.46875 -56.125 C 44.101562 -55.382812 46.617188 -54.273438 50.015625 -52.796875 C 55.929688 -50.273438 60.976562 -46.851562 65.15625 -42.53125 C 69.332031 -38.207031 71.421875 -33.3125 71.421875 -27.84375 C 71.421875 -22.59375 70.476562 -18.003906 68.59375 -14.078125 C 66.707031 -10.160156 64.117188 -7.09375 60.828125 -4.875 C 57.535156 -2.65625 53.894531 -1.015625 49.90625 0.046875 C 45.914062 1.117188 41.59375 1.65625 36.9375 1.65625 C 32.9375 1.65625 29.015625 1.25 25.171875 0.4375 C 21.328125 -0.375 18.109375 -1.390625 15.515625 -2.609375 C 12.929688 -3.828125 10.601562 -5.023438 8.53125 -6.203125 C 6.46875 -7.390625 4.957031 -8.390625 4 -9.203125 L 2.546875 -10.421875 L 12.96875 -27.953125 C 13.863281 -27.210938 15.085938 -26.269531 16.640625 -25.125 C 18.191406 -23.976562 20.941406 -22.441406 24.890625 -20.515625 C 28.847656 -18.597656 32.34375 -17.640625 35.375 -17.640625 C 44.175781 -17.640625 48.578125 -20.632812 48.578125 -26.625 C 48.578125 -27.875 48.257812 -29.035156 47.625 -30.109375 C 47 -31.179688 45.890625 -32.253906 44.296875 -33.328125 C 42.710938 -34.398438 41.3125 -35.25 40.09375 -35.875 C 38.875 -36.507812 36.875 -37.472656 34.09375 -38.765625 C 31.320312 -40.054688 29.273438 -41.035156 27.953125 -41.703125 C 22.398438 -44.429688 18.109375 -47.847656 15.078125 -51.953125 C 12.046875 -56.054688 10.53125 -60.476562 10.53125 -65.21875 C 10.53125 -73.425781 13.5625 -80.132812 19.625 -85.34375 C 25.6875 -90.550781 32.601562 -93.15625 40.375 -93.15625 Z M 40.375 -93.15625 "/></g></g></g><g fill="#000000" fill-opacity="1"><g transform="translate(224.901235, 634.482261)"><g><path d="M 53.125 -91.5 L 90.0625 0 L 67.65625 0 L 60.890625 -18.296875 L 26.0625 -18.296875 L 19.296875 0 L -3.109375 0 L 33.828125 -91.5 Z M 53.796875 -36.59375 L 43.59375 -63.21875 L 43.359375 -63.21875 L 33.15625 -36.59375 Z M 53.796875 -36.59375 "/></g></g></g><g fill="#000000" fill-opacity="1"><g transform="translate(329.712451, 634.482261)"><g><path d="M 27.5 -91.5 L 27.5 -18.296875 L 59 -18.296875 L 59 0 L 6.65625 0 L 6.65625 -91.5 Z M 27.5 -91.5 "/></g></g></g><g fill="#000000" fill-opacity="1"><g transform="translate(410.234227, 634.482261)"><g><path d="M 59 -91.5 L 59 -73.203125 L 27.5 -73.203125 L 27.5 -55.015625 L 57.671875 -55.015625 L 57.671875 -36.703125 L 27.5 -36.703125 L 27.5 -18.296875 L 59 -18.296875 L 59 0 L 6.65625 0 L 6.65625 -91.5 Z M 59 -91.5 "/></g></g></g><g fill="#000000" fill-opacity="1"><g transform="translate(492.419664, 634.482261)"><g><path d="M 27.5 -56.78125 L 27.5 0 L 6.65625 0 L 6.65625 -91.5 L 27.5 -91.5 L 63.875 -34.71875 L 64.109375 -34.71875 L 64.109375 -91.5 L 84.953125 -91.5 L 84.953125 0 L 64.109375 0 L 27.734375 -56.78125 Z M 27.5 -56.78125 "/></g></g></g><g fill="#000000" fill-opacity="1"><g transform="translate(601.889096, 634.482261)"><g><path d="M 0.890625 -73.203125 L 0.890625 -91.5 L 65.21875 -91.5 L 65.21875 -73.203125 L 43.46875 -73.203125 L 43.46875 0 L 22.625 0 L 22.625 -73.203125 Z M 0.890625 -73.203125 "/></g></g></g><g fill="#000000" fill-opacity="1"><g transform="translate(685.84912, 634.482261)"><g><path d="M -3.328125 -91.5 L 21.734375 -91.5 L 40.8125 -62.21875 L 59.890625 -91.5 L 84.953125 -91.5 L 51.234375 -41.03125 L 51.234375 0 L 30.390625 0 L 30.390625 -41.03125 Z M -3.328125 -91.5 "/></g></g></g></svg>