<svg xmlns="http://www.w3.org/2000/svg" xmlns:xlink="http://www.w3.org/1999/xlink" width="1200" zoomAndPan="magnify" viewBox="0 0 900 899.99999" height="1200" preserveAspectRatio="xMidYMid meet" version="1.0"><defs><g/><clipPath id="eeb7f2da75"><path d="M 201.730469 95.363281 L 698.269531 95.363281 L 698.269531 591.902344 L 201.730469 591.902344 Z M 201.730469 95.363281 " clip-rule="nonzero"/></clipPath><clipPath id="b38747bfe5"><path d="M 450 95.363281 C 312.882812 95.363281 201.730469 206.519531 201.730469 343.632812 C 201.730469 480.75 312.882812 591.902344 450 591.902344 C 587.117188 591.902344 698.269531 480.75 698.269531 343.632812 C 698.269531 206.519531 587.117188 95.363281 450 95.363281 Z M 450 95.363281 " clip-rule="nonzero"/></clipPath><clipPath id="761dd7e472"><path d="M 234 207.457031 L 651 207.457031 L 651 541.957031 L 234 541.957031 Z M 234 207.457031 " clip-rule="nonzero"/></clipPath></defs><g clip-path="url(#eeb7f2da75)"><g clip-path="url(#b38747bfe5)"><path fill="#eb4c23" d="M 201.730469 95.363281 L 698.269531 95.363281 L 698.269531 591.902344 L 201.730469 591.902344 Z M 201.730469 95.363281 " fill-opacity="1" fill-rule="nonzero"/></g></g><g clip-path="url(#761dd7e472)"><path fill="#ffffff" d="M 413.117188 514.207031 C 404.515625 514.207031 397.515625 507.207031 397.515625 498.605469 C 397.515625 490.003906 404.515625 483.007812 413.117188 483.007812 C 421.71875 483.007812 428.710938 490.003906 428.710938 498.605469 C 428.710938 507.207031 421.71875 514.207031 413.117188 514.207031 Z M 531.78125 514.207031 C 523.179688 514.207031 516.179688 507.207031 516.179688 498.605469 C 516.179688 490.003906 523.179688 483.007812 531.78125 483.007812 C 540.378906 483.007812 547.375 490.003906 547.375 498.605469 C 547.375 507.207031 540.378906 514.207031 531.78125 514.207031 Z M 636.121094 259.703125 L 360.964844 259.703125 L 344.609375 216.488281 C 342.558594 211.074219 337.375 207.492188 331.585938 207.492188 L 282.871094 207.492188 C 275.183594 207.492188 268.949219 213.726562 268.949219 221.417969 C 268.949219 229.105469 275.183594 235.339844 282.871094 235.339844 L 321.96875 235.339844 L 331.1875 259.703125 L 327.867188 259.703125 C 320.179688 259.703125 313.945312 265.9375 313.945312 273.628906 C 313.945312 281.316406 320.179688 287.550781 327.867188 287.550781 L 341.726562 287.550781 L 344.175781 294.015625 L 248.347656 294.015625 C 240.65625 294.015625 234.425781 300.246094 234.425781 307.9375 C 234.425781 315.628906 240.65625 321.859375 248.347656 321.859375 L 352.320312 321.859375 C 353.113281 321.859375 353.878906 321.78125 354.632812 321.652344 L 359.679688 334.988281 L 301.476562 334.988281 C 293.789062 334.988281 287.554688 341.222656 287.554688 348.914062 C 287.554688 356.601562 293.789062 362.835938 301.476562 362.835938 L 367.820312 362.835938 C 368.613281 362.835938 369.382812 362.753906 370.136719 362.625 L 375.183594 375.964844 L 254.710938 375.964844 C 247.019531 375.964844 240.789062 382.199219 240.789062 389.890625 C 240.789062 397.578125 247.019531 403.808594 254.710938 403.808594 L 383.328125 403.808594 C 384.117188 403.808594 384.886719 403.730469 385.644531 403.605469 L 386.347656 405.460938 L 382.144531 416.9375 L 327.929688 416.9375 C 320.242188 416.9375 314.007812 423.175781 314.007812 430.863281 C 314.007812 438.550781 320.242188 444.785156 327.929688 444.785156 L 371.960938 444.785156 L 369.480469 451.558594 C 367.917969 455.828125 368.539062 460.59375 371.144531 464.320312 C 373.332031 467.445312 376.6875 469.492188 380.394531 470.078125 C 373.722656 477.714844 369.671875 487.691406 369.671875 498.605469 C 369.671875 522.5625 389.160156 542.050781 413.117188 542.050781 C 437.070312 542.050781 456.558594 522.5625 456.558594 498.605469 C 456.558594 487.78125 452.570312 477.882812 446 470.265625 L 498.890625 470.265625 C 492.320312 477.882812 488.335938 487.78125 488.335938 498.605469 C 488.335938 522.5625 507.824219 542.050781 531.78125 542.050781 C 555.734375 542.050781 575.226562 522.5625 575.226562 498.605469 C 575.226562 487.78125 571.238281 477.882812 564.664062 470.265625 L 575.226562 470.265625 C 582.914062 470.265625 589.144531 464.035156 589.144531 456.34375 C 589.144531 448.65625 582.914062 442.421875 575.226562 442.421875 L 402.476562 442.421875 L 410.933594 419.304688 L 582.6875 419.304688 C 588.355469 419.304688 593.460938 415.867188 595.589844 410.613281 L 649.023438 278.859375 C 650.765625 274.566406 650.261719 269.691406 647.671875 265.847656 C 645.082031 262.007812 640.757812 259.703125 636.121094 259.703125 " fill-opacity="1" fill-rule="nonzero"/></g><path fill="#ffffff" d="M 225.136719 307.933594 C 225.136719 300.246094 218.902344 294.015625 211.214844 294.015625 L 152.296875 294.015625 C 144.609375 294.015625 138.375 300.246094 138.375 307.933594 C 138.375 315.625 144.609375 321.859375 152.296875 321.859375 L 211.214844 321.859375 C 218.902344 321.859375 225.136719 315.625 225.136719 307.933594 " fill-opacity="1" fill-rule="nonzero"/><path fill="#ffffff" d="M 277.199219 348.914062 C 277.199219 341.222656 270.96875 334.988281 263.28125 334.988281 L 201.621094 334.988281 C 193.933594 334.988281 187.703125 341.222656 187.703125 348.914062 C 187.703125 356.601562 193.933594 362.835938 201.621094 362.835938 L 263.28125 362.835938 C 270.96875 362.835938 277.199219 356.601562 277.199219 348.914062 " fill-opacity="1" fill-rule="nonzero"/><g fill="#000000" fill-opacity="1"><g transform="translate(69.014495, 761.378697)"><g><path d="M 48.453125 -111.796875 C 54.390625 -111.796875 60.195312 -110.929688 65.875 -109.203125 C 71.5625 -107.472656 75.78125 -105.765625 78.53125 -104.078125 L 82.515625 -101.421875 L 72.40625 -81.453125 C 71.601562 -81.984375 70.492188 -82.671875 69.078125 -83.515625 C 67.660156 -84.359375 65 -85.488281 61.09375 -86.90625 C 57.1875 -88.332031 53.546875 -89.046875 50.171875 -89.046875 C 46.003906 -89.046875 42.789062 -88.15625 40.53125 -86.375 C 38.269531 -84.601562 37.140625 -82.207031 37.140625 -79.1875 C 37.140625 -77.675781 37.671875 -76.273438 38.734375 -74.984375 C 39.796875 -73.703125 41.613281 -72.328125 44.1875 -70.859375 C 46.757812 -69.398438 49.019531 -68.226562 50.96875 -67.34375 C 52.925781 -66.457031 55.945312 -65.128906 60.03125 -63.359375 C 67.125 -60.335938 73.175781 -56.226562 78.1875 -51.03125 C 83.207031 -45.84375 85.71875 -39.96875 85.71875 -33.40625 C 85.71875 -27.101562 84.582031 -21.597656 82.3125 -16.890625 C 80.050781 -12.191406 76.945312 -8.507812 73 -5.84375 C 69.050781 -3.1875 64.679688 -1.21875 59.890625 0.0625 C 55.097656 1.351562 49.90625 2 44.3125 2 C 39.53125 2 34.832031 1.507812 30.21875 0.53125 C 25.601562 -0.445312 21.738281 -1.664062 18.625 -3.125 C 15.519531 -4.59375 12.722656 -6.035156 10.234375 -7.453125 C 7.753906 -8.867188 5.941406 -10.066406 4.796875 -11.046875 L 3.0625 -12.515625 L 15.578125 -33.546875 C 16.640625 -32.648438 18.101562 -31.515625 19.96875 -30.140625 C 21.832031 -28.765625 25.132812 -26.921875 29.875 -24.609375 C 34.625 -22.304688 38.816406 -21.15625 42.453125 -21.15625 C 53.015625 -21.15625 58.296875 -24.75 58.296875 -31.9375 C 58.296875 -33.445312 57.914062 -34.84375 57.15625 -36.125 C 56.40625 -37.414062 55.078125 -38.703125 53.171875 -39.984375 C 51.265625 -41.273438 49.578125 -42.296875 48.109375 -43.046875 C 46.648438 -43.804688 44.253906 -44.960938 40.921875 -46.515625 C 37.597656 -48.066406 35.140625 -49.242188 33.546875 -50.046875 C 26.890625 -53.328125 21.738281 -57.425781 18.09375 -62.34375 C 14.457031 -67.269531 12.640625 -72.578125 12.640625 -78.265625 C 12.640625 -88.109375 16.273438 -96.15625 23.546875 -102.40625 C 30.828125 -108.664062 39.128906 -111.796875 48.453125 -111.796875 Z M 48.453125 -111.796875 "/></g></g></g><g fill="#000000" fill-opacity="1"><g transform="translate(179.881564, 761.378697)"><g><path d="M 63.75 -109.796875 L 108.078125 0 L 81.1875 0 L 73.0625 -21.953125 L 31.28125 -21.953125 L 23.15625 0 L -3.734375 0 L 40.59375 -109.796875 Z M 64.546875 -43.921875 L 52.3125 -75.859375 L 52.046875 -75.859375 L 39.796875 -43.921875 Z M 64.546875 -43.921875 "/></g></g></g><g fill="#000000" fill-opacity="1"><g transform="translate(305.655022, 761.378697)"><g><path d="M 33 -109.796875 L 33 -21.953125 L 70.8125 -21.953125 L 70.8125 0 L 7.984375 0 L 7.984375 -109.796875 Z M 33 -109.796875 "/></g></g></g><g fill="#000000" fill-opacity="1"><g transform="translate(402.281153, 761.378697)"><g><path d="M 70.8125 -109.796875 L 70.8125 -87.84375 L 33 -87.84375 L 33 -66.015625 L 69.203125 -66.015625 L 69.203125 -44.046875 L 33 -44.046875 L 33 -21.953125 L 70.8125 -21.953125 L 70.8125 0 L 7.984375 0 L 7.984375 -109.796875 Z M 70.8125 -109.796875 "/></g></g></g><g fill="#000000" fill-opacity="1"><g transform="translate(500.903677, 761.378697)"><g><path d="M 33 -68.140625 L 33 0 L 7.984375 0 L 7.984375 -109.796875 L 33 -109.796875 L 76.65625 -41.65625 L 76.921875 -41.65625 L 76.921875 -109.796875 L 101.953125 -109.796875 L 101.953125 0 L 76.921875 0 L 33.28125 -68.140625 Z M 33 -68.140625 "/></g></g></g><g fill="#000000" fill-opacity="1"><g transform="translate(632.266994, 761.378697)"><g><path d="M 1.0625 -87.84375 L 1.0625 -109.796875 L 78.265625 -109.796875 L 78.265625 -87.84375 L 52.171875 -87.84375 L 52.171875 0 L 27.15625 0 L 27.15625 -87.84375 Z M 1.0625 -87.84375 "/></g></g></g><g fill="#000000" fill-opacity="1"><g transform="translate(733.019021, 761.378697)"><g><path d="M -4 -109.796875 L 26.09375 -109.796875 L 48.984375 -74.671875 L 71.875 -109.796875 L 101.953125 -109.796875 L 61.484375 -49.25 L 61.484375 0 L 36.46875 0 L 36.46875 -49.25 Z M -4 -109.796875 "/></g></g></g></svg>